<?xml version="1.0" encoding="UTF-8"?>
<svg width="24px" height="24px" viewBox="0 0 24 24" version="1.1" xmlns="http://www.w3.org/2000/svg" xmlns:xlink="http://www.w3.org/1999/xlink">
    <!-- Generator: Sketch 52.2 (67145) - http://www.bohemiancoding.com/sketch -->
    <title>property_add_floor</title>
    <desc>Created with Sketch.</desc>
    <g id="property_add_floor" stroke="none" stroke-width="1" fill-rule="evenodd">
        <path d="M17.2021519,11.6790929 L16.6405644,12 L19.4961389,13.6317569 C19.9756564,13.9057668 20.1422531,14.5166215 19.8682431,14.9961389 C19.7796538,15.1511702 19.6511702,15.2796538 19.4961389,15.3682431 L12.4961389,19.3682431 C12.1887063,19.543919 11.8112937,19.543919 11.5038611,19.3682431 L4.50386106,15.3682431 C4.02434362,15.0942332 3.85774689,14.4833785 4.13175686,14.0038611 C4.22034616,13.8488298 4.34882978,13.7203462 4.50386106,13.6317569 L7.35943556,12 L4.50386106,10.3682431 C4.02434362,10.0942332 3.85774689,9.48337851 4.13175686,9.00386106 C4.22034616,8.84882978 4.34882978,8.72034616 4.50386106,8.63175686 L11.5038611,4.63175686 C11.8112937,4.45608105 12.1887063,4.45608105 12.4961389,4.63175686 L13.7831956,5.36721778 L13.2793044,7.38278222 L12,6.65175111 L7.01556444,9.5 L12,12.3482489 L15.2542239,10.4886924 L17.2021519,11.6790929 Z M9.375,13.1517511 L7.01556444,14.5 L12,17.3482489 L16.9844356,14.5 L14.625,13.1517511 L12.4961389,14.3682431 C12.1887063,14.543919 11.8112937,14.543919 11.5038611,14.3682431 L9.375,13.1517511 Z M17,6.5 L17,4.5 L19,4.5 L19,6.5 L21,6.5 L21,8.5 L19,8.5 L19,10.5 L17,10.5 L17,8.5 L15,8.5 L15,6.5 L17,6.5 Z" id="Shape" fill="#787B7F" fill-rule="nonzero"></path>
    </g>
</svg>
